<?xml version="1.0" encoding="utf-8" standalone="no"?>
<!DOCTYPE svg PUBLIC "-//W3C//DTD SVG 1.1//EN"
  "http://www.w3.org/Graphics/SVG/1.1/DTD/svg11.dtd">
<!-- Created with matplotlib (https://matplotlib.org/) -->
<svg height="288pt" version="1.1" viewBox="0 0 720 288" width="720pt" xmlns="http://www.w3.org/2000/svg" xmlns:xlink="http://www.w3.org/1999/xlink">
 <defs>
  <style type="text/css">
*{stroke-linecap:butt;stroke-linejoin:round;}
  </style>
 </defs>
 <g id="figure_1">
  <g id="patch_1">
   <path d="M 0 288 
L 720 288 
L 720 0 
L 0 0 
z
" style="fill:#ffffff;"/>
  </g>
  <g id="axes_1">
   <g id="patch_2">
    <path d="M 82.875 214 
L 340 214 
L 340 56 
L 82.875 56 
z
" style="fill:#ffffff;"/>
   </g>
   <g id="PolyCollection_1">
    <path clip-path="url(#pf2f691fa10)" d="M 94.5625 212.994182 
L 94.5625 213.099188 
L 176.254619 212.682818 
L 211.4375 212.225012 
L 246.620381 211.381016 
L 293.129619 208.197038 
L 328.3125 195.541067 
L 328.3125 190.634462 
L 328.3125 190.634462 
L 293.129619 206.590054 
L 246.620381 210.810532 
L 211.4375 211.87835 
L 176.254619 212.479176 
L 94.5625 212.994182 
z
" style="fill:#1f77b4;fill-opacity:0.1;"/>
   </g>
   <g id="PolyCollection_2">
    <path clip-path="url(#pf2f691fa10)" d="M 94.5625 213.088409 
L 94.5625 213.119802 
L 176.254619 212.582132 
L 211.4375 212.246759 
L 246.620381 211.15492 
L 293.129619 206.637677 
L 328.3125 193.90212 
L 328.3125 187.467218 
L 328.3125 187.467218 
L 293.129619 204.926878 
L 246.620381 210.483127 
L 211.4375 211.913474 
L 176.254619 212.37083 
L 94.5625 213.088409 
z
" style="fill:#ff7f0e;fill-opacity:0.1;"/>
   </g>
   <g id="PolyCollection_3">
    <path clip-path="url(#pf2f691fa10)" d="M 94.5625 171.860382 
L 94.5625 175.651358 
L 176.254619 169.60467 
L 211.4375 155.968272 
L 246.620381 133.865268 
L 293.129619 106.939555 
L 328.3125 94.0627 
L 328.3125 82.427857 
L 328.3125 82.427857 
L 293.129619 95.531731 
L 246.620381 124.006723 
L 211.4375 148.599926 
L 176.254619 164.633733 
L 94.5625 171.860382 
z
" style="fill:#2ca02c;fill-opacity:0.1;"/>
   </g>
   <g id="PolyCollection_4">
    <path clip-path="url(#pf2f691fa10)" d="M 94.5625 209.915879 
L 94.5625 210.529185 
L 176.254619 210.44679 
L 211.4375 209.721233 
L 246.620381 205.828228 
L 293.129619 173.180705 
L 328.3125 134.806857 
L 328.3125 124.860403 
L 328.3125 124.860403 
L 293.129619 165.715744 
L 246.620381 204.096157 
L 211.4375 208.878209 
L 176.254619 209.77743 
L 94.5625 209.915879 
z
" style="fill:#d62728;fill-opacity:0.1;"/>
   </g>
   <g id="PolyCollection_5">
    <path clip-path="url(#pf2f691fa10)" d="M 94.5625 212.713981 
L 94.5625 212.952713 
L 176.254619 212.915791 
L 211.4375 212.786596 
L 246.620381 212.254575 
L 293.129619 202.103224 
L 328.3125 168.0517 
L 328.3125 159.956003 
L 328.3125 159.956003 
L 293.129619 198.977619 
L 246.620381 211.924027 
L 211.4375 212.519794 
L 176.254619 212.672394 
L 94.5625 212.713981 
z
" style="fill:#9467bd;fill-opacity:0.1;"/>
   </g>
   <g id="PolyCollection_6">
    <path clip-path="url(#pf2f691fa10)" d="M 94.5625 213.134724 
L 94.5625 213.17034 
L 176.254619 213.163682 
L 211.4375 213.154485 
L 246.620381 213.092505 
L 293.129619 212.558528 
L 328.3125 207.104677 
L 328.3125 205.167751 
L 328.3125 205.167751 
L 293.129619 212.332452 
L 246.620381 213.016545 
L 211.4375 213.119547 
L 176.254619 213.129197 
L 94.5625 213.134724 
z
" style="fill:#8c564b;fill-opacity:0.1;"/>
   </g>
   <g id="PolyCollection_7">
    <path clip-path="url(#pf2f691fa10)" d="M 94.5625 213.131227 
L 94.5625 213.167086 
L 176.254619 213.165609 
L 211.4375 213.16116 
L 246.620381 213.151158 
L 293.129619 213.078746 
L 328.3125 212.529819 
L 328.3125 212.305344 
L 328.3125 212.305344 
L 293.129619 213.035581 
L 246.620381 213.116273 
L 211.4375 213.126258 
L 176.254619 213.129798 
L 94.5625 213.131227 
z
" style="fill:#e377c2;fill-opacity:0.1;"/>
   </g>
   <g id="matplotlib.axis_1">
    <g id="xtick_1">
     <g id="line2d_1">
      <defs>
       <path d="M 0 0 
L 0 3.5 
" id="m8dfc3978c7" style="stroke:#000000;stroke-width:0.8;"/>
      </defs>
      <g>
       <use style="stroke:#000000;stroke-width:0.8;" x="109.921165" xlink:href="#m8dfc3978c7" y="214"/>
      </g>
     </g>
     <g id="text_1">
      <!-- −2 -->
      <defs>
       <path d="M 10.59375 35.5 
L 73.1875 35.5 
L 73.1875 27.203125 
L 10.59375 27.203125 
z
" id="DejaVuSans-8722"/>
       <path d="M 19.1875 8.296875 
L 53.609375 8.296875 
L 53.609375 0 
L 7.328125 0 
L 7.328125 8.296875 
Q 12.9375 14.109375 22.625 23.890625 
Q 32.328125 33.6875 34.8125 36.53125 
Q 39.546875 41.84375 41.421875 45.53125 
Q 43.3125 49.21875 43.3125 52.78125 
Q 43.3125 58.59375 39.234375 62.25 
Q 35.15625 65.921875 28.609375 65.921875 
Q 23.96875 65.921875 18.8125 64.3125 
Q 13.671875 62.703125 7.8125 59.421875 
L 7.8125 69.390625 
Q 13.765625 71.78125 18.9375 73 
Q 24.125 74.21875 28.421875 74.21875 
Q 39.75 74.21875 46.484375 68.546875 
Q 53.21875 62.890625 53.21875 53.421875 
Q 53.21875 48.921875 51.53125 44.890625 
Q 49.859375 40.875 45.40625 35.40625 
Q 44.1875 33.984375 37.640625 27.21875 
Q 31.109375 20.453125 19.1875 8.296875 
z
" id="DejaVuSans-50"/>
      </defs>
      <g transform="translate(102.550071 228.598437)scale(0.1 -0.1)">
       <use xlink:href="#DejaVuSans-8722"/>
       <use x="83.789062" xlink:href="#DejaVuSans-50"/>
      </g>
     </g>
    </g>
    <g id="xtick_2">
     <g id="line2d_2">
      <g>
       <use style="stroke:#000000;stroke-width:0.8;" x="160.679332" xlink:href="#m8dfc3978c7" y="214"/>
      </g>
     </g>
     <g id="text_2">
      <!-- −1 -->
      <defs>
       <path d="M 12.40625 8.296875 
L 28.515625 8.296875 
L 28.515625 63.921875 
L 10.984375 60.40625 
L 10.984375 69.390625 
L 28.421875 72.90625 
L 38.28125 72.90625 
L 38.28125 8.296875 
L 54.390625 8.296875 
L 54.390625 0 
L 12.40625 0 
z
" id="DejaVuSans-49"/>
      </defs>
      <g transform="translate(153.308239 228.598437)scale(0.1 -0.1)">
       <use xlink:href="#DejaVuSans-8722"/>
       <use x="83.789062" xlink:href="#DejaVuSans-49"/>
      </g>
     </g>
    </g>
    <g id="xtick_3">
     <g id="line2d_3">
      <g>
       <use style="stroke:#000000;stroke-width:0.8;" x="211.4375" xlink:href="#m8dfc3978c7" y="214"/>
      </g>
     </g>
     <g id="text_3">
      <!-- 0 -->
      <defs>
       <path d="M 31.78125 66.40625 
Q 24.171875 66.40625 20.328125 58.90625 
Q 16.5 51.421875 16.5 36.375 
Q 16.5 21.390625 20.328125 13.890625 
Q 24.171875 6.390625 31.78125 6.390625 
Q 39.453125 6.390625 43.28125 13.890625 
Q 47.125 21.390625 47.125 36.375 
Q 47.125 51.421875 43.28125 58.90625 
Q 39.453125 66.40625 31.78125 66.40625 
z
M 31.78125 74.21875 
Q 44.046875 74.21875 50.515625 64.515625 
Q 56.984375 54.828125 56.984375 36.375 
Q 56.984375 17.96875 50.515625 8.265625 
Q 44.046875 -1.421875 31.78125 -1.421875 
Q 19.53125 -1.421875 13.0625 8.265625 
Q 6.59375 17.96875 6.59375 36.375 
Q 6.59375 54.828125 13.0625 64.515625 
Q 19.53125 74.21875 31.78125 74.21875 
z
" id="DejaVuSans-48"/>
      </defs>
      <g transform="translate(208.25625 228.598437)scale(0.1 -0.1)">
       <use xlink:href="#DejaVuSans-48"/>
      </g>
     </g>
    </g>
    <g id="xtick_4">
     <g id="line2d_4">
      <g>
       <use style="stroke:#000000;stroke-width:0.8;" x="262.195668" xlink:href="#m8dfc3978c7" y="214"/>
      </g>
     </g>
     <g id="text_4">
      <!-- 1 -->
      <g transform="translate(259.014418 228.598437)scale(0.1 -0.1)">
       <use xlink:href="#DejaVuSans-49"/>
      </g>
     </g>
    </g>
    <g id="xtick_5">
     <g id="line2d_5">
      <g>
       <use style="stroke:#000000;stroke-width:0.8;" x="312.953835" xlink:href="#m8dfc3978c7" y="214"/>
      </g>
     </g>
     <g id="text_5">
      <!-- 2 -->
      <g transform="translate(309.772585 228.598437)scale(0.1 -0.1)">
       <use xlink:href="#DejaVuSans-50"/>
      </g>
     </g>
    </g>
    <g id="text_6">
     <!-- log(sigma) -->
     <defs>
      <path d="M 9.421875 75.984375 
L 18.40625 75.984375 
L 18.40625 0 
L 9.421875 0 
z
" id="DejaVuSans-108"/>
      <path d="M 30.609375 48.390625 
Q 23.390625 48.390625 19.1875 42.75 
Q 14.984375 37.109375 14.984375 27.296875 
Q 14.984375 17.484375 19.15625 11.84375 
Q 23.34375 6.203125 30.609375 6.203125 
Q 37.796875 6.203125 41.984375 11.859375 
Q 46.1875 17.53125 46.1875 27.296875 
Q 46.1875 37.015625 41.984375 42.703125 
Q 37.796875 48.390625 30.609375 48.390625 
z
M 30.609375 56 
Q 42.328125 56 49.015625 48.375 
Q 55.71875 40.765625 55.71875 27.296875 
Q 55.71875 13.875 49.015625 6.21875 
Q 42.328125 -1.421875 30.609375 -1.421875 
Q 18.84375 -1.421875 12.171875 6.21875 
Q 5.515625 13.875 5.515625 27.296875 
Q 5.515625 40.765625 12.171875 48.375 
Q 18.84375 56 30.609375 56 
z
" id="DejaVuSans-111"/>
      <path d="M 45.40625 27.984375 
Q 45.40625 37.75 41.375 43.109375 
Q 37.359375 48.484375 30.078125 48.484375 
Q 22.859375 48.484375 18.828125 43.109375 
Q 14.796875 37.75 14.796875 27.984375 
Q 14.796875 18.265625 18.828125 12.890625 
Q 22.859375 7.515625 30.078125 7.515625 
Q 37.359375 7.515625 41.375 12.890625 
Q 45.40625 18.265625 45.40625 27.984375 
z
M 54.390625 6.78125 
Q 54.390625 -7.171875 48.1875 -13.984375 
Q 42 -20.796875 29.203125 -20.796875 
Q 24.46875 -20.796875 20.265625 -20.09375 
Q 16.0625 -19.390625 12.109375 -17.921875 
L 12.109375 -9.1875 
Q 16.0625 -11.328125 19.921875 -12.34375 
Q 23.78125 -13.375 27.78125 -13.375 
Q 36.625 -13.375 41.015625 -8.765625 
Q 45.40625 -4.15625 45.40625 5.171875 
L 45.40625 9.625 
Q 42.625 4.78125 38.28125 2.390625 
Q 33.9375 0 27.875 0 
Q 17.828125 0 11.671875 7.65625 
Q 5.515625 15.328125 5.515625 27.984375 
Q 5.515625 40.671875 11.671875 48.328125 
Q 17.828125 56 27.875 56 
Q 33.9375 56 38.28125 53.609375 
Q 42.625 51.21875 45.40625 46.390625 
L 45.40625 54.6875 
L 54.390625 54.6875 
z
" id="DejaVuSans-103"/>
      <path d="M 31 75.875 
Q 24.46875 64.65625 21.28125 53.65625 
Q 18.109375 42.671875 18.109375 31.390625 
Q 18.109375 20.125 21.3125 9.0625 
Q 24.515625 -2 31 -13.1875 
L 23.1875 -13.1875 
Q 15.875 -1.703125 12.234375 9.375 
Q 8.59375 20.453125 8.59375 31.390625 
Q 8.59375 42.28125 12.203125 53.3125 
Q 15.828125 64.359375 23.1875 75.875 
z
" id="DejaVuSans-40"/>
      <path d="M 44.28125 53.078125 
L 44.28125 44.578125 
Q 40.484375 46.53125 36.375 47.5 
Q 32.28125 48.484375 27.875 48.484375 
Q 21.1875 48.484375 17.84375 46.4375 
Q 14.5 44.390625 14.5 40.28125 
Q 14.5 37.15625 16.890625 35.375 
Q 19.28125 33.59375 26.515625 31.984375 
L 29.59375 31.296875 
Q 39.15625 29.25 43.1875 25.515625 
Q 47.21875 21.78125 47.21875 15.09375 
Q 47.21875 7.46875 41.1875 3.015625 
Q 35.15625 -1.421875 24.609375 -1.421875 
Q 20.21875 -1.421875 15.453125 -0.5625 
Q 10.6875 0.296875 5.421875 2 
L 5.421875 11.28125 
Q 10.40625 8.6875 15.234375 7.390625 
Q 20.0625 6.109375 24.8125 6.109375 
Q 31.15625 6.109375 34.5625 8.28125 
Q 37.984375 10.453125 37.984375 14.40625 
Q 37.984375 18.0625 35.515625 20.015625 
Q 33.0625 21.96875 24.703125 23.78125 
L 21.578125 24.515625 
Q 13.234375 26.265625 9.515625 29.90625 
Q 5.8125 33.546875 5.8125 39.890625 
Q 5.8125 47.609375 11.28125 51.796875 
Q 16.75 56 26.8125 56 
Q 31.78125 56 36.171875 55.265625 
Q 40.578125 54.546875 44.28125 53.078125 
z
" id="DejaVuSans-115"/>
      <path d="M 9.421875 54.6875 
L 18.40625 54.6875 
L 18.40625 0 
L 9.421875 0 
z
M 9.421875 75.984375 
L 18.40625 75.984375 
L 18.40625 64.59375 
L 9.421875 64.59375 
z
" id="DejaVuSans-105"/>
      <path d="M 52 44.1875 
Q 55.375 50.25 60.0625 53.125 
Q 64.75 56 71.09375 56 
Q 79.640625 56 84.28125 50.015625 
Q 88.921875 44.046875 88.921875 33.015625 
L 88.921875 0 
L 79.890625 0 
L 79.890625 32.71875 
Q 79.890625 40.578125 77.09375 44.375 
Q 74.3125 48.1875 68.609375 48.1875 
Q 61.625 48.1875 57.5625 43.546875 
Q 53.515625 38.921875 53.515625 30.90625 
L 53.515625 0 
L 44.484375 0 
L 44.484375 32.71875 
Q 44.484375 40.625 41.703125 44.40625 
Q 38.921875 48.1875 33.109375 48.1875 
Q 26.21875 48.1875 22.15625 43.53125 
Q 18.109375 38.875 18.109375 30.90625 
L 18.109375 0 
L 9.078125 0 
L 9.078125 54.6875 
L 18.109375 54.6875 
L 18.109375 46.1875 
Q 21.1875 51.21875 25.484375 53.609375 
Q 29.78125 56 35.6875 56 
Q 41.65625 56 45.828125 52.96875 
Q 50 49.953125 52 44.1875 
z
" id="DejaVuSans-109"/>
      <path d="M 34.28125 27.484375 
Q 23.390625 27.484375 19.1875 25 
Q 14.984375 22.515625 14.984375 16.5 
Q 14.984375 11.71875 18.140625 8.90625 
Q 21.296875 6.109375 26.703125 6.109375 
Q 34.1875 6.109375 38.703125 11.40625 
Q 43.21875 16.703125 43.21875 25.484375 
L 43.21875 27.484375 
z
M 52.203125 31.203125 
L 52.203125 0 
L 43.21875 0 
L 43.21875 8.296875 
Q 40.140625 3.328125 35.546875 0.953125 
Q 30.953125 -1.421875 24.3125 -1.421875 
Q 15.921875 -1.421875 10.953125 3.296875 
Q 6 8.015625 6 15.921875 
Q 6 25.140625 12.171875 29.828125 
Q 18.359375 34.515625 30.609375 34.515625 
L 43.21875 34.515625 
L 43.21875 35.40625 
Q 43.21875 41.609375 39.140625 45 
Q 35.0625 48.390625 27.6875 48.390625 
Q 23 48.390625 18.546875 47.265625 
Q 14.109375 46.140625 10.015625 43.890625 
L 10.015625 52.203125 
Q 14.9375 54.109375 19.578125 55.046875 
Q 24.21875 56 28.609375 56 
Q 40.484375 56 46.34375 49.84375 
Q 52.203125 43.703125 52.203125 31.203125 
z
" id="DejaVuSans-97"/>
      <path d="M 8.015625 75.875 
L 15.828125 75.875 
Q 23.140625 64.359375 26.78125 53.3125 
Q 30.421875 42.28125 30.421875 31.390625 
Q 30.421875 20.453125 26.78125 9.375 
Q 23.140625 -1.703125 15.828125 -13.1875 
L 8.015625 -13.1875 
Q 14.5 -2 17.703125 9.0625 
Q 20.90625 20.125 20.90625 31.390625 
Q 20.90625 42.671875 17.703125 53.65625 
Q 14.5 64.65625 8.015625 75.875 
z
" id="DejaVuSans-41"/>
     </defs>
     <g transform="translate(179.485625 243.79625)scale(0.12 -0.12)">
      <use xlink:href="#DejaVuSans-108"/>
      <use x="27.783203" xlink:href="#DejaVuSans-111"/>
      <use x="88.964844" xlink:href="#DejaVuSans-103"/>
      <use x="152.441406" xlink:href="#DejaVuSans-40"/>
      <use x="191.455078" xlink:href="#DejaVuSans-115"/>
      <use x="243.554688" xlink:href="#DejaVuSans-105"/>
      <use x="271.337891" xlink:href="#DejaVuSans-103"/>
      <use x="334.814453" xlink:href="#DejaVuSans-109"/>
      <use x="432.226562" xlink:href="#DejaVuSans-97"/>
      <use x="493.505859" xlink:href="#DejaVuSans-41"/>
     </g>
    </g>
   </g>
   <g id="matplotlib.axis_2">
    <g id="ytick_1">
     <g id="line2d_6">
      <defs>
       <path d="M 0 0 
L -3.5 0 
" id="m77a9423605" style="stroke:#000000;stroke-width:0.8;"/>
      </defs>
      <g>
       <use style="stroke:#000000;stroke-width:0.8;" x="82.875" xlink:href="#m77a9423605" y="213.21393"/>
      </g>
     </g>
     <g id="text_7">
      <!-- 0 -->
      <g transform="translate(69.5125 217.013149)scale(0.1 -0.1)">
       <use xlink:href="#DejaVuSans-48"/>
      </g>
     </g>
    </g>
    <g id="ytick_2">
     <g id="line2d_7">
      <g>
       <use style="stroke:#000000;stroke-width:0.8;" x="82.875" xlink:href="#m77a9423605" y="181.771144"/>
      </g>
     </g>
     <g id="text_8">
      <!-- 20 -->
      <g transform="translate(63.15 185.570363)scale(0.1 -0.1)">
       <use xlink:href="#DejaVuSans-50"/>
       <use x="63.623047" xlink:href="#DejaVuSans-48"/>
      </g>
     </g>
    </g>
    <g id="ytick_3">
     <g id="line2d_8">
      <g>
       <use style="stroke:#000000;stroke-width:0.8;" x="82.875" xlink:href="#m77a9423605" y="150.328358"/>
      </g>
     </g>
     <g id="text_9">
      <!-- 40 -->
      <defs>
       <path d="M 37.796875 64.3125 
L 12.890625 25.390625 
L 37.796875 25.390625 
z
M 35.203125 72.90625 
L 47.609375 72.90625 
L 47.609375 25.390625 
L 58.015625 25.390625 
L 58.015625 17.1875 
L 47.609375 17.1875 
L 47.609375 0 
L 37.796875 0 
L 37.796875 17.1875 
L 4.890625 17.1875 
L 4.890625 26.703125 
z
" id="DejaVuSans-52"/>
      </defs>
      <g transform="translate(63.15 154.127577)scale(0.1 -0.1)">
       <use xlink:href="#DejaVuSans-52"/>
       <use x="63.623047" xlink:href="#DejaVuSans-48"/>
      </g>
     </g>
    </g>
    <g id="ytick_4">
     <g id="line2d_9">
      <g>
       <use style="stroke:#000000;stroke-width:0.8;" x="82.875" xlink:href="#m77a9423605" y="118.885572"/>
      </g>
     </g>
     <g id="text_10">
      <!-- 60 -->
      <defs>
       <path d="M 33.015625 40.375 
Q 26.375 40.375 22.484375 35.828125 
Q 18.609375 31.296875 18.609375 23.390625 
Q 18.609375 15.53125 22.484375 10.953125 
Q 26.375 6.390625 33.015625 6.390625 
Q 39.65625 6.390625 43.53125 10.953125 
Q 47.40625 15.53125 47.40625 23.390625 
Q 47.40625 31.296875 43.53125 35.828125 
Q 39.65625 40.375 33.015625 40.375 
z
M 52.59375 71.296875 
L 52.59375 62.3125 
Q 48.875 64.0625 45.09375 64.984375 
Q 41.3125 65.921875 37.59375 65.921875 
Q 27.828125 65.921875 22.671875 59.328125 
Q 17.53125 52.734375 16.796875 39.40625 
Q 19.671875 43.65625 24.015625 45.921875 
Q 28.375 48.1875 33.59375 48.1875 
Q 44.578125 48.1875 50.953125 41.515625 
Q 57.328125 34.859375 57.328125 23.390625 
Q 57.328125 12.15625 50.6875 5.359375 
Q 44.046875 -1.421875 33.015625 -1.421875 
Q 20.359375 -1.421875 13.671875 8.265625 
Q 6.984375 17.96875 6.984375 36.375 
Q 6.984375 53.65625 15.1875 63.9375 
Q 23.390625 74.21875 37.203125 74.21875 
Q 40.921875 74.21875 44.703125 73.484375 
Q 48.484375 72.75 52.59375 71.296875 
z
" id="DejaVuSans-54"/>
      </defs>
      <g transform="translate(63.15 122.684791)scale(0.1 -0.1)">
       <use xlink:href="#DejaVuSans-54"/>
       <use x="63.623047" xlink:href="#DejaVuSans-48"/>
      </g>
     </g>
    </g>
    <g id="ytick_5">
     <g id="line2d_10">
      <g>
       <use style="stroke:#000000;stroke-width:0.8;" x="82.875" xlink:href="#m77a9423605" y="87.442786"/>
      </g>
     </g>
     <g id="text_11">
      <!-- 80 -->
      <defs>
       <path d="M 31.78125 34.625 
Q 24.75 34.625 20.71875 30.859375 
Q 16.703125 27.09375 16.703125 20.515625 
Q 16.703125 13.921875 20.71875 10.15625 
Q 24.75 6.390625 31.78125 6.390625 
Q 38.8125 6.390625 42.859375 10.171875 
Q 46.921875 13.96875 46.921875 20.515625 
Q 46.921875 27.09375 42.890625 30.859375 
Q 38.875 34.625 31.78125 34.625 
z
M 21.921875 38.8125 
Q 15.578125 40.375 12.03125 44.71875 
Q 8.5 49.078125 8.5 55.328125 
Q 8.5 64.0625 14.71875 69.140625 
Q 20.953125 74.21875 31.78125 74.21875 
Q 42.671875 74.21875 48.875 69.140625 
Q 55.078125 64.0625 55.078125 55.328125 
Q 55.078125 49.078125 51.53125 44.71875 
Q 48 40.375 41.703125 38.8125 
Q 48.828125 37.15625 52.796875 32.3125 
Q 56.78125 27.484375 56.78125 20.515625 
Q 56.78125 9.90625 50.3125 4.234375 
Q 43.84375 -1.421875 31.78125 -1.421875 
Q 19.734375 -1.421875 13.25 4.234375 
Q 6.78125 9.90625 6.78125 20.515625 
Q 6.78125 27.484375 10.78125 32.3125 
Q 14.796875 37.15625 21.921875 38.8125 
z
M 18.3125 54.390625 
Q 18.3125 48.734375 21.84375 45.5625 
Q 25.390625 42.390625 31.78125 42.390625 
Q 38.140625 42.390625 41.71875 45.5625 
Q 45.3125 48.734375 45.3125 54.390625 
Q 45.3125 60.0625 41.71875 63.234375 
Q 38.140625 66.40625 31.78125 66.40625 
Q 25.390625 66.40625 21.84375 63.234375 
Q 18.3125 60.0625 18.3125 54.390625 
z
" id="DejaVuSans-56"/>
      </defs>
      <g transform="translate(63.15 91.242005)scale(0.1 -0.1)">
       <use xlink:href="#DejaVuSans-56"/>
       <use x="63.623047" xlink:href="#DejaVuSans-48"/>
      </g>
     </g>
    </g>
    <g id="ytick_6">
     <g id="line2d_11">
      <g>
       <use style="stroke:#000000;stroke-width:0.8;" x="82.875" xlink:href="#m77a9423605" y="56"/>
      </g>
     </g>
     <g id="text_12">
      <!-- 100 -->
      <g transform="translate(56.7875 59.799219)scale(0.1 -0.1)">
       <use xlink:href="#DejaVuSans-49"/>
       <use x="63.623047" xlink:href="#DejaVuSans-48"/>
       <use x="127.246094" xlink:href="#DejaVuSans-48"/>
      </g>
     </g>
    </g>
    <g id="text_13">
     <!-- Regret -->
     <defs>
      <path d="M 44.390625 34.1875 
Q 47.5625 33.109375 50.5625 29.59375 
Q 53.5625 26.078125 56.59375 19.921875 
L 66.609375 0 
L 56 0 
L 46.6875 18.703125 
Q 43.0625 26.03125 39.671875 28.421875 
Q 36.28125 30.8125 30.421875 30.8125 
L 19.671875 30.8125 
L 19.671875 0 
L 9.8125 0 
L 9.8125 72.90625 
L 32.078125 72.90625 
Q 44.578125 72.90625 50.734375 67.671875 
Q 56.890625 62.453125 56.890625 51.90625 
Q 56.890625 45.015625 53.6875 40.46875 
Q 50.484375 35.9375 44.390625 34.1875 
z
M 19.671875 64.796875 
L 19.671875 38.921875 
L 32.078125 38.921875 
Q 39.203125 38.921875 42.84375 42.21875 
Q 46.484375 45.515625 46.484375 51.90625 
Q 46.484375 58.296875 42.84375 61.546875 
Q 39.203125 64.796875 32.078125 64.796875 
z
" id="DejaVuSans-82"/>
      <path d="M 56.203125 29.59375 
L 56.203125 25.203125 
L 14.890625 25.203125 
Q 15.484375 15.921875 20.484375 11.0625 
Q 25.484375 6.203125 34.421875 6.203125 
Q 39.59375 6.203125 44.453125 7.46875 
Q 49.3125 8.734375 54.109375 11.28125 
L 54.109375 2.78125 
Q 49.265625 0.734375 44.1875 -0.34375 
Q 39.109375 -1.421875 33.890625 -1.421875 
Q 20.796875 -1.421875 13.15625 6.1875 
Q 5.515625 13.8125 5.515625 26.8125 
Q 5.515625 40.234375 12.765625 48.109375 
Q 20.015625 56 32.328125 56 
Q 43.359375 56 49.78125 48.890625 
Q 56.203125 41.796875 56.203125 29.59375 
z
M 47.21875 32.234375 
Q 47.125 39.59375 43.09375 43.984375 
Q 39.0625 48.390625 32.421875 48.390625 
Q 24.90625 48.390625 20.390625 44.140625 
Q 15.875 39.890625 15.1875 32.171875 
z
" id="DejaVuSans-101"/>
      <path d="M 41.109375 46.296875 
Q 39.59375 47.171875 37.8125 47.578125 
Q 36.03125 48 33.890625 48 
Q 26.265625 48 22.1875 43.046875 
Q 18.109375 38.09375 18.109375 28.8125 
L 18.109375 0 
L 9.078125 0 
L 9.078125 54.6875 
L 18.109375 54.6875 
L 18.109375 46.1875 
Q 20.953125 51.171875 25.484375 53.578125 
Q 30.03125 56 36.53125 56 
Q 37.453125 56 38.578125 55.875 
Q 39.703125 55.765625 41.0625 55.515625 
z
" id="DejaVuSans-114"/>
      <path d="M 18.3125 70.21875 
L 18.3125 54.6875 
L 36.8125 54.6875 
L 36.8125 47.703125 
L 18.3125 47.703125 
L 18.3125 18.015625 
Q 18.3125 11.328125 20.140625 9.421875 
Q 21.96875 7.515625 27.59375 7.515625 
L 36.8125 7.515625 
L 36.8125 0 
L 27.59375 0 
Q 17.1875 0 13.234375 3.875 
Q 9.28125 7.765625 9.28125 18.015625 
L 9.28125 47.703125 
L 2.6875 47.703125 
L 2.6875 54.6875 
L 9.28125 54.6875 
L 9.28125 70.21875 
z
" id="DejaVuSans-116"/>
     </defs>
     <g transform="translate(50.291875 155.175)rotate(-90)scale(0.12 -0.12)">
      <use xlink:href="#DejaVuSans-82"/>
      <use x="69.419922" xlink:href="#DejaVuSans-101"/>
      <use x="130.943359" xlink:href="#DejaVuSans-103"/>
      <use x="194.419922" xlink:href="#DejaVuSans-114"/>
      <use x="235.501953" xlink:href="#DejaVuSans-101"/>
      <use x="297.025391" xlink:href="#DejaVuSans-116"/>
     </g>
    </g>
   </g>
   <g id="line2d_12">
    <path clip-path="url(#pf2f691fa10)" d="M 94.5625 213.046685 
L 176.254619 212.580997 
L 211.4375 212.051681 
L 246.620381 211.095774 
L 293.129619 207.393546 
L 328.3125 193.087764 
" style="fill:none;stroke:#1f77b4;stroke-dasharray:5.55,2.4;stroke-dashoffset:0;stroke-width:1.5;"/>
    <defs>
     <path d="M 0 -4.5 
L -1.010313 -1.390576 
L -4.279754 -1.390576 
L -1.634721 0.531153 
L -2.645034 3.640576 
L -0 1.718847 
L 2.645034 3.640576 
L 1.634721 0.531153 
L 4.279754 -1.390576 
L 1.010313 -1.390576 
z
" id="m02dea2bea5" style="stroke:#1f77b4;stroke-linejoin:bevel;"/>
    </defs>
    <g clip-path="url(#pf2f691fa10)">
     <use style="fill:#1f77b4;stroke:#1f77b4;stroke-linejoin:bevel;" x="94.5625" xlink:href="#m02dea2bea5" y="213.046685"/>
     <use style="fill:#1f77b4;stroke:#1f77b4;stroke-linejoin:bevel;" x="176.254619" xlink:href="#m02dea2bea5" y="212.580997"/>
     <use style="fill:#1f77b4;stroke:#1f77b4;stroke-linejoin:bevel;" x="211.4375" xlink:href="#m02dea2bea5" y="212.051681"/>
     <use style="fill:#1f77b4;stroke:#1f77b4;stroke-linejoin:bevel;" x="246.620381" xlink:href="#m02dea2bea5" y="211.095774"/>
     <use style="fill:#1f77b4;stroke:#1f77b4;stroke-linejoin:bevel;" x="293.129619" xlink:href="#m02dea2bea5" y="207.393546"/>
     <use style="fill:#1f77b4;stroke:#1f77b4;stroke-linejoin:bevel;" x="328.3125" xlink:href="#m02dea2bea5" y="193.087764"/>
    </g>
   </g>
   <g id="line2d_13">
    <path clip-path="url(#pf2f691fa10)" d="M 94.5625 213.104105 
L 176.254619 212.476481 
L 211.4375 212.080117 
L 246.620381 210.819023 
L 293.129619 205.782277 
L 328.3125 190.684669 
" style="fill:none;stroke:#ff7f0e;stroke-dasharray:5.55,2.4;stroke-dashoffset:0;stroke-width:1.5;"/>
    <defs>
     <path d="M 0 -4.5 
L -1.010313 -1.390576 
L -4.279754 -1.390576 
L -1.634721 0.531153 
L -2.645034 3.640576 
L -0 1.718847 
L 2.645034 3.640576 
L 1.634721 0.531153 
L 4.279754 -1.390576 
L 1.010313 -1.390576 
z
" id="m5c52c75910" style="stroke:#ff7f0e;stroke-linejoin:bevel;"/>
    </defs>
    <g clip-path="url(#pf2f691fa10)">
     <use style="fill:#ff7f0e;stroke:#ff7f0e;stroke-linejoin:bevel;" x="94.5625" xlink:href="#m5c52c75910" y="213.104105"/>
     <use style="fill:#ff7f0e;stroke:#ff7f0e;stroke-linejoin:bevel;" x="176.254619" xlink:href="#m5c52c75910" y="212.476481"/>
     <use style="fill:#ff7f0e;stroke:#ff7f0e;stroke-linejoin:bevel;" x="211.4375" xlink:href="#m5c52c75910" y="212.080117"/>
     <use style="fill:#ff7f0e;stroke:#ff7f0e;stroke-linejoin:bevel;" x="246.620381" xlink:href="#m5c52c75910" y="210.819023"/>
     <use style="fill:#ff7f0e;stroke:#ff7f0e;stroke-linejoin:bevel;" x="293.129619" xlink:href="#m5c52c75910" y="205.782277"/>
     <use style="fill:#ff7f0e;stroke:#ff7f0e;stroke-linejoin:bevel;" x="328.3125" xlink:href="#m5c52c75910" y="190.684669"/>
    </g>
   </g>
   <g id="line2d_14">
    <path clip-path="url(#pf2f691fa10)" d="M 94.5625 173.75587 
L 176.254619 167.119201 
L 211.4375 152.284099 
L 246.620381 128.935995 
L 293.129619 101.235643 
L 328.3125 88.245278 
" style="fill:none;stroke:#2ca02c;stroke-linecap:square;stroke-width:1.5;"/>
    <defs>
     <path d="M 0 3 
C 0.795609 3 1.55874 2.683901 2.12132 2.12132 
C 2.683901 1.55874 3 0.795609 3 0 
C 3 -0.795609 2.683901 -1.55874 2.12132 -2.12132 
C 1.55874 -2.683901 0.795609 -3 0 -3 
C -0.795609 -3 -1.55874 -2.683901 -2.12132 -2.12132 
C -2.683901 -1.55874 -3 -0.795609 -3 0 
C -3 0.795609 -2.683901 1.55874 -2.12132 2.12132 
C -1.55874 2.683901 -0.795609 3 0 3 
z
" id="m03c79fafc9" style="stroke:#2ca02c;"/>
    </defs>
    <g clip-path="url(#pf2f691fa10)">
     <use style="fill:#2ca02c;stroke:#2ca02c;" x="94.5625" xlink:href="#m03c79fafc9" y="173.75587"/>
     <use style="fill:#2ca02c;stroke:#2ca02c;" x="176.254619" xlink:href="#m03c79fafc9" y="167.119201"/>
     <use style="fill:#2ca02c;stroke:#2ca02c;" x="211.4375" xlink:href="#m03c79fafc9" y="152.284099"/>
     <use style="fill:#2ca02c;stroke:#2ca02c;" x="246.620381" xlink:href="#m03c79fafc9" y="128.935995"/>
     <use style="fill:#2ca02c;stroke:#2ca02c;" x="293.129619" xlink:href="#m03c79fafc9" y="101.235643"/>
     <use style="fill:#2ca02c;stroke:#2ca02c;" x="328.3125" xlink:href="#m03c79fafc9" y="88.245278"/>
    </g>
   </g>
   <g id="line2d_15">
    <path clip-path="url(#pf2f691fa10)" d="M 94.5625 210.222532 
L 176.254619 210.11211 
L 211.4375 209.299721 
L 246.620381 204.962192 
L 293.129619 169.448224 
L 328.3125 129.83363 
" style="fill:none;stroke:#d62728;stroke-linecap:square;stroke-width:1.5;"/>
    <defs>
     <path d="M 0 3 
C 0.795609 3 1.55874 2.683901 2.12132 2.12132 
C 2.683901 1.55874 3 0.795609 3 0 
C 3 -0.795609 2.683901 -1.55874 2.12132 -2.12132 
C 1.55874 -2.683901 0.795609 -3 0 -3 
C -0.795609 -3 -1.55874 -2.683901 -2.12132 -2.12132 
C -2.683901 -1.55874 -3 -0.795609 -3 0 
C -3 0.795609 -2.683901 1.55874 -2.12132 2.12132 
C -1.55874 2.683901 -0.795609 3 0 3 
z
" id="md830c4d83d" style="stroke:#d62728;"/>
    </defs>
    <g clip-path="url(#pf2f691fa10)">
     <use style="fill:#d62728;stroke:#d62728;" x="94.5625" xlink:href="#md830c4d83d" y="210.222532"/>
     <use style="fill:#d62728;stroke:#d62728;" x="176.254619" xlink:href="#md830c4d83d" y="210.11211"/>
     <use style="fill:#d62728;stroke:#d62728;" x="211.4375" xlink:href="#md830c4d83d" y="209.299721"/>
     <use style="fill:#d62728;stroke:#d62728;" x="246.620381" xlink:href="#md830c4d83d" y="204.962192"/>
     <use style="fill:#d62728;stroke:#d62728;" x="293.129619" xlink:href="#md830c4d83d" y="169.448224"/>
     <use style="fill:#d62728;stroke:#d62728;" x="328.3125" xlink:href="#md830c4d83d" y="129.83363"/>
    </g>
   </g>
   <g id="line2d_16">
    <path clip-path="url(#pf2f691fa10)" d="M 94.5625 212.833347 
L 176.254619 212.794093 
L 211.4375 212.653195 
L 246.620381 212.089301 
L 293.129619 200.540421 
L 328.3125 164.003852 
" style="fill:none;stroke:#9467bd;stroke-linecap:square;stroke-width:1.5;"/>
    <defs>
     <path d="M 0 3 
C 0.795609 3 1.55874 2.683901 2.12132 2.12132 
C 2.683901 1.55874 3 0.795609 3 0 
C 3 -0.795609 2.683901 -1.55874 2.12132 -2.12132 
C 1.55874 -2.683901 0.795609 -3 0 -3 
C -0.795609 -3 -1.55874 -2.683901 -2.12132 -2.12132 
C -2.683901 -1.55874 -3 -0.795609 -3 0 
C -3 0.795609 -2.683901 1.55874 -2.12132 2.12132 
C -1.55874 2.683901 -0.795609 3 0 3 
z
" id="md72cc984a4" style="stroke:#9467bd;"/>
    </defs>
    <g clip-path="url(#pf2f691fa10)">
     <use style="fill:#9467bd;stroke:#9467bd;" x="94.5625" xlink:href="#md72cc984a4" y="212.833347"/>
     <use style="fill:#9467bd;stroke:#9467bd;" x="176.254619" xlink:href="#md72cc984a4" y="212.794093"/>
     <use style="fill:#9467bd;stroke:#9467bd;" x="211.4375" xlink:href="#md72cc984a4" y="212.653195"/>
     <use style="fill:#9467bd;stroke:#9467bd;" x="246.620381" xlink:href="#md72cc984a4" y="212.089301"/>
     <use style="fill:#9467bd;stroke:#9467bd;" x="293.129619" xlink:href="#md72cc984a4" y="200.540421"/>
     <use style="fill:#9467bd;stroke:#9467bd;" x="328.3125" xlink:href="#md72cc984a4" y="164.003852"/>
    </g>
   </g>
   <g id="line2d_17">
    <path clip-path="url(#pf2f691fa10)" d="M 94.5625 213.152532 
L 176.254619 213.146439 
L 211.4375 213.137016 
L 246.620381 213.054525 
L 293.129619 212.44549 
L 328.3125 206.136214 
" style="fill:none;stroke:#8c564b;stroke-linecap:square;stroke-width:1.5;"/>
    <defs>
     <path d="M 0 3 
C 0.795609 3 1.55874 2.683901 2.12132 2.12132 
C 2.683901 1.55874 3 0.795609 3 0 
C 3 -0.795609 2.683901 -1.55874 2.12132 -2.12132 
C 1.55874 -2.683901 0.795609 -3 0 -3 
C -0.795609 -3 -1.55874 -2.683901 -2.12132 -2.12132 
C -2.683901 -1.55874 -3 -0.795609 -3 0 
C -3 0.795609 -2.683901 1.55874 -2.12132 2.12132 
C -1.55874 2.683901 -0.795609 3 0 3 
z
" id="m81c9d4eb9a" style="stroke:#8c564b;"/>
    </defs>
    <g clip-path="url(#pf2f691fa10)">
     <use style="fill:#8c564b;stroke:#8c564b;" x="94.5625" xlink:href="#m81c9d4eb9a" y="213.152532"/>
     <use style="fill:#8c564b;stroke:#8c564b;" x="176.254619" xlink:href="#m81c9d4eb9a" y="213.146439"/>
     <use style="fill:#8c564b;stroke:#8c564b;" x="211.4375" xlink:href="#m81c9d4eb9a" y="213.137016"/>
     <use style="fill:#8c564b;stroke:#8c564b;" x="246.620381" xlink:href="#m81c9d4eb9a" y="213.054525"/>
     <use style="fill:#8c564b;stroke:#8c564b;" x="293.129619" xlink:href="#m81c9d4eb9a" y="212.44549"/>
     <use style="fill:#8c564b;stroke:#8c564b;" x="328.3125" xlink:href="#m81c9d4eb9a" y="206.136214"/>
    </g>
   </g>
   <g id="line2d_18">
    <path clip-path="url(#pf2f691fa10)" d="M 94.5625 213.149157 
L 176.254619 213.147703 
L 211.4375 213.143709 
L 246.620381 213.133715 
L 293.129619 213.057164 
L 328.3125 212.417581 
" style="fill:none;stroke:#e377c2;stroke-linecap:square;stroke-width:1.5;"/>
    <defs>
     <path d="M 0 3 
C 0.795609 3 1.55874 2.683901 2.12132 2.12132 
C 2.683901 1.55874 3 0.795609 3 0 
C 3 -0.795609 2.683901 -1.55874 2.12132 -2.12132 
C 1.55874 -2.683901 0.795609 -3 0 -3 
C -0.795609 -3 -1.55874 -2.683901 -2.12132 -2.12132 
C -2.683901 -1.55874 -3 -0.795609 -3 0 
C -3 0.795609 -2.683901 1.55874 -2.12132 2.12132 
C -1.55874 2.683901 -0.795609 3 0 3 
z
" id="m4e4e5f8004" style="stroke:#e377c2;"/>
    </defs>
    <g clip-path="url(#pf2f691fa10)">
     <use style="fill:#e377c2;stroke:#e377c2;" x="94.5625" xlink:href="#m4e4e5f8004" y="213.149157"/>
     <use style="fill:#e377c2;stroke:#e377c2;" x="176.254619" xlink:href="#m4e4e5f8004" y="213.147703"/>
     <use style="fill:#e377c2;stroke:#e377c2;" x="211.4375" xlink:href="#m4e4e5f8004" y="213.143709"/>
     <use style="fill:#e377c2;stroke:#e377c2;" x="246.620381" xlink:href="#m4e4e5f8004" y="213.133715"/>
     <use style="fill:#e377c2;stroke:#e377c2;" x="293.129619" xlink:href="#m4e4e5f8004" y="213.057164"/>
     <use style="fill:#e377c2;stroke:#e377c2;" x="328.3125" xlink:href="#m4e4e5f8004" y="212.417581"/>
    </g>
   </g>
   <g id="patch_3">
    <path d="M 82.875 214 
L 82.875 56 
" style="fill:none;stroke:#000000;stroke-linecap:square;stroke-linejoin:miter;stroke-width:0.8;"/>
   </g>
   <g id="patch_4">
    <path d="M 340 214 
L 340 56 
" style="fill:none;stroke:#000000;stroke-linecap:square;stroke-linejoin:miter;stroke-width:0.8;"/>
   </g>
   <g id="patch_5">
    <path d="M 82.875 214 
L 340 214 
" style="fill:none;stroke:#000000;stroke-linecap:square;stroke-linejoin:miter;stroke-width:0.8;"/>
   </g>
   <g id="patch_6">
    <path d="M 82.875 56 
L 340 56 
" style="fill:none;stroke:#000000;stroke-linecap:square;stroke-linejoin:miter;stroke-width:0.8;"/>
   </g>
   <g id="text_14">
    <!--  $ϵ = 0.95$ -->
    <defs>
     <path id="DejaVuSans-32"/>
     <path d="M 51.65625 46 
Q 50 46.625 48.296875 47.125 
Q 43.703125 48.390625 38.53125 48.390625 
Q 29.59375 48.390625 23.6875 43.5625 
Q 18.171875 39.0625 15.671875 30.8125 
L 48.734375 30.8125 
L 47.359375 23.78125 
L 14.3125 23.78125 
Q 13.578125 15.53125 17.328125 11.03125 
Q 21.390625 6.203125 30.328125 6.203125 
Q 36.578125 6.203125 40.578125 7.46875 
L 44.4375 8.6875 
L 42.828125 0.53125 
L 38.8125 -0.34375 
Q 33.546875 -1.421875 28.328125 -1.421875 
Q 15.234375 -1.421875 9.078125 6.203125 
Q 2.875 13.8125 5.515625 27.28125 
Q 8.15625 40.765625 17.28125 48.390625 
Q 26.375 56 39.453125 56 
Q 44.390625 56 49.5625 54.9375 
Q 51.421875 54.546875 53.21875 53.953125 
z
" id="DejaVuSans-Oblique-1013"/>
     <path d="M 10.59375 45.40625 
L 73.1875 45.40625 
L 73.1875 37.203125 
L 10.59375 37.203125 
z
M 10.59375 25.484375 
L 73.1875 25.484375 
L 73.1875 17.1875 
L 10.59375 17.1875 
z
" id="DejaVuSans-61"/>
     <path d="M 10.6875 12.40625 
L 21 12.40625 
L 21 0 
L 10.6875 0 
z
" id="DejaVuSans-46"/>
     <path d="M 10.984375 1.515625 
L 10.984375 10.5 
Q 14.703125 8.734375 18.5 7.8125 
Q 22.3125 6.890625 25.984375 6.890625 
Q 35.75 6.890625 40.890625 13.453125 
Q 46.046875 20.015625 46.78125 33.40625 
Q 43.953125 29.203125 39.59375 26.953125 
Q 35.25 24.703125 29.984375 24.703125 
Q 19.046875 24.703125 12.671875 31.3125 
Q 6.296875 37.9375 6.296875 49.421875 
Q 6.296875 60.640625 12.9375 67.421875 
Q 19.578125 74.21875 30.609375 74.21875 
Q 43.265625 74.21875 49.921875 64.515625 
Q 56.59375 54.828125 56.59375 36.375 
Q 56.59375 19.140625 48.40625 8.859375 
Q 40.234375 -1.421875 26.421875 -1.421875 
Q 22.703125 -1.421875 18.890625 -0.6875 
Q 15.09375 0.046875 10.984375 1.515625 
z
M 30.609375 32.421875 
Q 37.25 32.421875 41.125 36.953125 
Q 45.015625 41.5 45.015625 49.421875 
Q 45.015625 57.28125 41.125 61.84375 
Q 37.25 66.40625 30.609375 66.40625 
Q 23.96875 66.40625 20.09375 61.84375 
Q 16.21875 57.28125 16.21875 49.421875 
Q 16.21875 41.5 20.09375 36.953125 
Q 23.96875 32.421875 30.609375 32.421875 
z
" id="DejaVuSans-57"/>
     <path d="M 10.796875 72.90625 
L 49.515625 72.90625 
L 49.515625 64.59375 
L 19.828125 64.59375 
L 19.828125 46.734375 
Q 21.96875 47.46875 24.109375 47.828125 
Q 26.265625 48.1875 28.421875 48.1875 
Q 40.625 48.1875 47.75 41.5 
Q 54.890625 34.8125 54.890625 23.390625 
Q 54.890625 11.625 47.5625 5.09375 
Q 40.234375 -1.421875 26.90625 -1.421875 
Q 22.3125 -1.421875 17.546875 -0.640625 
Q 12.796875 0.140625 7.71875 1.703125 
L 7.71875 11.625 
Q 12.109375 9.234375 16.796875 8.0625 
Q 21.484375 6.890625 26.703125 6.890625 
Q 35.15625 6.890625 40.078125 11.328125 
Q 45.015625 15.765625 45.015625 23.390625 
Q 45.015625 31 40.078125 35.4375 
Q 35.15625 39.890625 26.703125 39.890625 
Q 22.75 39.890625 18.8125 39.015625 
Q 14.890625 38.140625 10.796875 36.28125 
z
" id="DejaVuSans-53"/>
    </defs>
    <g transform="translate(185.0975 50)scale(0.12 -0.12)">
     <use transform="translate(0 0.78125)" xlink:href="#DejaVuSans-32"/>
     <use transform="translate(31.787109 0.78125)" xlink:href="#DejaVuSans-Oblique-1013"/>
     <use transform="translate(112.792969 0.78125)" xlink:href="#DejaVuSans-61"/>
     <use transform="translate(216.064453 0.78125)" xlink:href="#DejaVuSans-48"/>
     <use transform="translate(279.6875 0.78125)" xlink:href="#DejaVuSans-46"/>
     <use transform="translate(311.474609 0.78125)" xlink:href="#DejaVuSans-57"/>
     <use transform="translate(375.097656 0.78125)" xlink:href="#DejaVuSans-53"/>
    </g>
   </g>
  </g>
  <g id="axes_2">
   <g id="patch_7">
    <path d="M 422.875 214 
L 680 214 
L 680 56 
L 422.875 56 
z
" style="fill:#ffffff;"/>
   </g>
   <g id="PolyCollection_8">
    <path clip-path="url(#pc03464ac52)" d="M 434.5625 212.176048 
L 434.5625 212.428291 
L 516.254619 207.113536 
L 551.4375 195.521337 
L 586.620381 167.701757 
L 633.129619 128.458315 
L 668.3125 108.063931 
L 668.3125 98.77972 
L 668.3125 98.77972 
L 633.129619 121.334585 
L 586.620381 163.153722 
L 551.4375 193.27981 
L 516.254619 206.122208 
L 434.5625 212.176048 
z
" style="fill:#1f77b4;fill-opacity:0.1;"/>
   </g>
   <g id="PolyCollection_9">
    <path clip-path="url(#pc03464ac52)" d="M 434.5625 212.307485 
L 434.5625 212.547535 
L 516.254619 207.149794 
L 551.4375 195.602662 
L 586.620381 169.151395 
L 633.129619 132.935494 
L 668.3125 114.073683 
L 668.3125 101.153986 
L 668.3125 101.153986 
L 633.129619 123.339577 
L 586.620381 163.616732 
L 551.4375 193.078985 
L 516.254619 206.208474 
L 434.5625 212.307485 
z
" style="fill:#ff7f0e;fill-opacity:0.1;"/>
   </g>
   <g id="PolyCollection_10">
    <path clip-path="url(#pc03464ac52)" d="M 434.5625 211.214851 
L 434.5625 211.686506 
L 516.254619 208.82278 
L 551.4375 201.297512 
L 586.620381 173.005335 
L 633.129619 123.792014 
L 668.3125 100.2203 
L 668.3125 92.508971 
L 668.3125 92.508971 
L 633.129619 116.575032 
L 586.620381 167.903761 
L 551.4375 198.939608 
L 516.254619 207.929683 
L 434.5625 211.214851 
z
" style="fill:#2ca02c;fill-opacity:0.1;"/>
   </g>
   <g id="PolyCollection_11">
    <path clip-path="url(#pc03464ac52)" d="M 434.5625 209.026655 
L 434.5625 209.789504 
L 516.254619 206.836365 
L 551.4375 199.558669 
L 586.620381 170.663904 
L 633.129619 123.520442 
L 668.3125 100.033809 
L 668.3125 92.501262 
L 668.3125 92.501262 
L 633.129619 116.305647 
L 586.620381 165.315858 
L 551.4375 197.251044 
L 516.254619 205.663435 
L 434.5625 209.026655 
z
" style="fill:#d62728;fill-opacity:0.1;"/>
   </g>
   <g id="PolyCollection_12">
    <path clip-path="url(#pc03464ac52)" d="M 434.5625 203.052553 
L 434.5625 204.312586 
L 516.254619 201.79049 
L 551.4375 193.763473 
L 586.620381 167.140892 
L 633.129619 123.191727 
L 668.3125 100.188369 
L 668.3125 92.632499 
L 668.3125 92.632499 
L 633.129619 115.834259 
L 586.620381 161.398431 
L 551.4375 190.920233 
L 516.254619 200.175413 
L 434.5625 203.052553 
z
" style="fill:#9467bd;fill-opacity:0.1;"/>
   </g>
   <g id="PolyCollection_13">
    <path clip-path="url(#pc03464ac52)" d="M 434.5625 174.143913 
L 434.5625 177.569292 
L 516.254619 175.725118 
L 551.4375 168.038629 
L 586.620381 149.999997 
L 633.129619 118.880276 
L 668.3125 99.574191 
L 668.3125 92.141753 
L 668.3125 92.141753 
L 633.129619 111.623617 
L 586.620381 144.006044 
L 551.4375 163.925785 
L 516.254619 172.070795 
L 434.5625 174.143913 
z
" style="fill:#8c564b;fill-opacity:0.1;"/>
   </g>
   <g id="PolyCollection_14">
    <path clip-path="url(#pc03464ac52)" d="M 434.5625 135.854719 
L 434.5625 141.227709 
L 516.254619 139.974915 
L 551.4375 136.529428 
L 586.620381 128.957533 
L 633.129619 110.184025 
L 668.3125 95.657869 
L 668.3125 88.595478 
L 668.3125 88.595478 
L 633.129619 103.044384 
L 586.620381 122.753637 
L 551.4375 131.007962 
L 516.254619 134.706079 
L 434.5625 135.854719 
z
" style="fill:#e377c2;fill-opacity:0.1;"/>
   </g>
   <g id="matplotlib.axis_3">
    <g id="xtick_6">
     <g id="line2d_19">
      <g>
       <use style="stroke:#000000;stroke-width:0.8;" x="449.921165" xlink:href="#m8dfc3978c7" y="214"/>
      </g>
     </g>
     <g id="text_15">
      <!-- −2 -->
      <g transform="translate(442.550071 228.598437)scale(0.1 -0.1)">
       <use xlink:href="#DejaVuSans-8722"/>
       <use x="83.789062" xlink:href="#DejaVuSans-50"/>
      </g>
     </g>
    </g>
    <g id="xtick_7">
     <g id="line2d_20">
      <g>
       <use style="stroke:#000000;stroke-width:0.8;" x="500.679332" xlink:href="#m8dfc3978c7" y="214"/>
      </g>
     </g>
     <g id="text_16">
      <!-- −1 -->
      <g transform="translate(493.308239 228.598437)scale(0.1 -0.1)">
       <use xlink:href="#DejaVuSans-8722"/>
       <use x="83.789062" xlink:href="#DejaVuSans-49"/>
      </g>
     </g>
    </g>
    <g id="xtick_8">
     <g id="line2d_21">
      <g>
       <use style="stroke:#000000;stroke-width:0.8;" x="551.4375" xlink:href="#m8dfc3978c7" y="214"/>
      </g>
     </g>
     <g id="text_17">
      <!-- 0 -->
      <g transform="translate(548.25625 228.598437)scale(0.1 -0.1)">
       <use xlink:href="#DejaVuSans-48"/>
      </g>
     </g>
    </g>
    <g id="xtick_9">
     <g id="line2d_22">
      <g>
       <use style="stroke:#000000;stroke-width:0.8;" x="602.195668" xlink:href="#m8dfc3978c7" y="214"/>
      </g>
     </g>
     <g id="text_18">
      <!-- 1 -->
      <g transform="translate(599.014418 228.598437)scale(0.1 -0.1)">
       <use xlink:href="#DejaVuSans-49"/>
      </g>
     </g>
    </g>
    <g id="xtick_10">
     <g id="line2d_23">
      <g>
       <use style="stroke:#000000;stroke-width:0.8;" x="652.953835" xlink:href="#m8dfc3978c7" y="214"/>
      </g>
     </g>
     <g id="text_19">
      <!-- 2 -->
      <g transform="translate(649.772585 228.598437)scale(0.1 -0.1)">
       <use xlink:href="#DejaVuSans-50"/>
      </g>
     </g>
    </g>
    <g id="text_20">
     <!-- log(sigma) -->
     <g transform="translate(519.485625 243.79625)scale(0.12 -0.12)">
      <use xlink:href="#DejaVuSans-108"/>
      <use x="27.783203" xlink:href="#DejaVuSans-111"/>
      <use x="88.964844" xlink:href="#DejaVuSans-103"/>
      <use x="152.441406" xlink:href="#DejaVuSans-40"/>
      <use x="191.455078" xlink:href="#DejaVuSans-115"/>
      <use x="243.554688" xlink:href="#DejaVuSans-105"/>
      <use x="271.337891" xlink:href="#DejaVuSans-103"/>
      <use x="334.814453" xlink:href="#DejaVuSans-109"/>
      <use x="432.226562" xlink:href="#DejaVuSans-97"/>
      <use x="493.505859" xlink:href="#DejaVuSans-41"/>
     </g>
    </g>
   </g>
   <g id="matplotlib.axis_4">
    <g id="ytick_7">
     <g id="line2d_24">
      <g>
       <use style="stroke:#000000;stroke-width:0.8;" x="422.875" xlink:href="#m77a9423605" y="213.21393"/>
      </g>
     </g>
     <g id="text_21">
      <!-- 0 -->
      <g transform="translate(409.5125 217.013149)scale(0.1 -0.1)">
       <use xlink:href="#DejaVuSans-48"/>
      </g>
     </g>
    </g>
    <g id="ytick_8">
     <g id="line2d_25">
      <g>
       <use style="stroke:#000000;stroke-width:0.8;" x="422.875" xlink:href="#m77a9423605" y="181.771144"/>
      </g>
     </g>
     <g id="text_22">
      <!-- 20 -->
      <g transform="translate(403.15 185.570363)scale(0.1 -0.1)">
       <use xlink:href="#DejaVuSans-50"/>
       <use x="63.623047" xlink:href="#DejaVuSans-48"/>
      </g>
     </g>
    </g>
    <g id="ytick_9">
     <g id="line2d_26">
      <g>
       <use style="stroke:#000000;stroke-width:0.8;" x="422.875" xlink:href="#m77a9423605" y="150.328358"/>
      </g>
     </g>
     <g id="text_23">
      <!-- 40 -->
      <g transform="translate(403.15 154.127577)scale(0.1 -0.1)">
       <use xlink:href="#DejaVuSans-52"/>
       <use x="63.623047" xlink:href="#DejaVuSans-48"/>
      </g>
     </g>
    </g>
    <g id="ytick_10">
     <g id="line2d_27">
      <g>
       <use style="stroke:#000000;stroke-width:0.8;" x="422.875" xlink:href="#m77a9423605" y="118.885572"/>
      </g>
     </g>
     <g id="text_24">
      <!-- 60 -->
      <g transform="translate(403.15 122.684791)scale(0.1 -0.1)">
       <use xlink:href="#DejaVuSans-54"/>
       <use x="63.623047" xlink:href="#DejaVuSans-48"/>
      </g>
     </g>
    </g>
    <g id="ytick_11">
     <g id="line2d_28">
      <g>
       <use style="stroke:#000000;stroke-width:0.8;" x="422.875" xlink:href="#m77a9423605" y="87.442786"/>
      </g>
     </g>
     <g id="text_25">
      <!-- 80 -->
      <g transform="translate(403.15 91.242005)scale(0.1 -0.1)">
       <use xlink:href="#DejaVuSans-56"/>
       <use x="63.623047" xlink:href="#DejaVuSans-48"/>
      </g>
     </g>
    </g>
    <g id="ytick_12">
     <g id="line2d_29">
      <g>
       <use style="stroke:#000000;stroke-width:0.8;" x="422.875" xlink:href="#m77a9423605" y="56"/>
      </g>
     </g>
     <g id="text_26">
      <!-- 100 -->
      <g transform="translate(396.7875 59.799219)scale(0.1 -0.1)">
       <use xlink:href="#DejaVuSans-49"/>
       <use x="63.623047" xlink:href="#DejaVuSans-48"/>
       <use x="127.246094" xlink:href="#DejaVuSans-48"/>
      </g>
     </g>
    </g>
    <g id="text_27">
     <!-- Regret -->
     <g transform="translate(390.291875 155.175)rotate(-90)scale(0.12 -0.12)">
      <use xlink:href="#DejaVuSans-82"/>
      <use x="69.419922" xlink:href="#DejaVuSans-101"/>
      <use x="130.943359" xlink:href="#DejaVuSans-103"/>
      <use x="194.419922" xlink:href="#DejaVuSans-114"/>
      <use x="235.501953" xlink:href="#DejaVuSans-101"/>
      <use x="297.025391" xlink:href="#DejaVuSans-116"/>
     </g>
    </g>
   </g>
   <g id="line2d_30">
    <path clip-path="url(#pc03464ac52)" d="M 434.5625 212.302169 
L 516.254619 206.617872 
L 551.4375 194.400573 
L 586.620381 165.427739 
L 633.129619 124.89645 
L 668.3125 103.421825 
" style="fill:none;stroke:#1f77b4;stroke-dasharray:5.55,2.4;stroke-dashoffset:0;stroke-width:1.5;"/>
    <g clip-path="url(#pc03464ac52)">
     <use style="fill:#1f77b4;stroke:#1f77b4;stroke-linejoin:bevel;" x="434.5625" xlink:href="#m02dea2bea5" y="212.302169"/>
     <use style="fill:#1f77b4;stroke:#1f77b4;stroke-linejoin:bevel;" x="516.254619" xlink:href="#m02dea2bea5" y="206.617872"/>
     <use style="fill:#1f77b4;stroke:#1f77b4;stroke-linejoin:bevel;" x="551.4375" xlink:href="#m02dea2bea5" y="194.400573"/>
     <use style="fill:#1f77b4;stroke:#1f77b4;stroke-linejoin:bevel;" x="586.620381" xlink:href="#m02dea2bea5" y="165.427739"/>
     <use style="fill:#1f77b4;stroke:#1f77b4;stroke-linejoin:bevel;" x="633.129619" xlink:href="#m02dea2bea5" y="124.89645"/>
     <use style="fill:#1f77b4;stroke:#1f77b4;stroke-linejoin:bevel;" x="668.3125" xlink:href="#m02dea2bea5" y="103.421825"/>
    </g>
   </g>
   <g id="line2d_31">
    <path clip-path="url(#pc03464ac52)" d="M 434.5625 212.42751 
L 516.254619 206.679134 
L 551.4375 194.340823 
L 586.620381 166.384064 
L 633.129619 128.137535 
L 668.3125 107.613835 
" style="fill:none;stroke:#ff7f0e;stroke-dasharray:5.55,2.4;stroke-dashoffset:0;stroke-width:1.5;"/>
    <g clip-path="url(#pc03464ac52)">
     <use style="fill:#ff7f0e;stroke:#ff7f0e;stroke-linejoin:bevel;" x="434.5625" xlink:href="#m5c52c75910" y="212.42751"/>
     <use style="fill:#ff7f0e;stroke:#ff7f0e;stroke-linejoin:bevel;" x="516.254619" xlink:href="#m5c52c75910" y="206.679134"/>
     <use style="fill:#ff7f0e;stroke:#ff7f0e;stroke-linejoin:bevel;" x="551.4375" xlink:href="#m5c52c75910" y="194.340823"/>
     <use style="fill:#ff7f0e;stroke:#ff7f0e;stroke-linejoin:bevel;" x="586.620381" xlink:href="#m5c52c75910" y="166.384064"/>
     <use style="fill:#ff7f0e;stroke:#ff7f0e;stroke-linejoin:bevel;" x="633.129619" xlink:href="#m5c52c75910" y="128.137535"/>
     <use style="fill:#ff7f0e;stroke:#ff7f0e;stroke-linejoin:bevel;" x="668.3125" xlink:href="#m5c52c75910" y="107.613835"/>
    </g>
   </g>
   <g id="line2d_32">
    <path clip-path="url(#pc03464ac52)" d="M 434.5625 211.450678 
L 516.254619 208.376232 
L 551.4375 200.11856 
L 586.620381 170.454548 
L 633.129619 120.183523 
L 668.3125 96.364636 
" style="fill:none;stroke:#2ca02c;stroke-linecap:square;stroke-width:1.5;"/>
    <g clip-path="url(#pc03464ac52)">
     <use style="fill:#2ca02c;stroke:#2ca02c;" x="434.5625" xlink:href="#m03c79fafc9" y="211.450678"/>
     <use style="fill:#2ca02c;stroke:#2ca02c;" x="516.254619" xlink:href="#m03c79fafc9" y="208.376232"/>
     <use style="fill:#2ca02c;stroke:#2ca02c;" x="551.4375" xlink:href="#m03c79fafc9" y="200.11856"/>
     <use style="fill:#2ca02c;stroke:#2ca02c;" x="586.620381" xlink:href="#m03c79fafc9" y="170.454548"/>
     <use style="fill:#2ca02c;stroke:#2ca02c;" x="633.129619" xlink:href="#m03c79fafc9" y="120.183523"/>
     <use style="fill:#2ca02c;stroke:#2ca02c;" x="668.3125" xlink:href="#m03c79fafc9" y="96.364636"/>
    </g>
   </g>
   <g id="line2d_33">
    <path clip-path="url(#pc03464ac52)" d="M 434.5625 209.408079 
L 516.254619 206.2499 
L 551.4375 198.404856 
L 586.620381 167.989881 
L 633.129619 119.913044 
L 668.3125 96.267535 
" style="fill:none;stroke:#d62728;stroke-linecap:square;stroke-width:1.5;"/>
    <g clip-path="url(#pc03464ac52)">
     <use style="fill:#d62728;stroke:#d62728;" x="434.5625" xlink:href="#md830c4d83d" y="209.408079"/>
     <use style="fill:#d62728;stroke:#d62728;" x="516.254619" xlink:href="#md830c4d83d" y="206.2499"/>
     <use style="fill:#d62728;stroke:#d62728;" x="551.4375" xlink:href="#md830c4d83d" y="198.404856"/>
     <use style="fill:#d62728;stroke:#d62728;" x="586.620381" xlink:href="#md830c4d83d" y="167.989881"/>
     <use style="fill:#d62728;stroke:#d62728;" x="633.129619" xlink:href="#md830c4d83d" y="119.913044"/>
     <use style="fill:#d62728;stroke:#d62728;" x="668.3125" xlink:href="#md830c4d83d" y="96.267535"/>
    </g>
   </g>
   <g id="line2d_34">
    <path clip-path="url(#pc03464ac52)" d="M 434.5625 203.68257 
L 516.254619 200.982952 
L 551.4375 192.341853 
L 586.620381 164.269662 
L 633.129619 119.512993 
L 668.3125 96.410434 
" style="fill:none;stroke:#9467bd;stroke-linecap:square;stroke-width:1.5;"/>
    <g clip-path="url(#pc03464ac52)">
     <use style="fill:#9467bd;stroke:#9467bd;" x="434.5625" xlink:href="#md72cc984a4" y="203.68257"/>
     <use style="fill:#9467bd;stroke:#9467bd;" x="516.254619" xlink:href="#md72cc984a4" y="200.982952"/>
     <use style="fill:#9467bd;stroke:#9467bd;" x="551.4375" xlink:href="#md72cc984a4" y="192.341853"/>
     <use style="fill:#9467bd;stroke:#9467bd;" x="586.620381" xlink:href="#md72cc984a4" y="164.269662"/>
     <use style="fill:#9467bd;stroke:#9467bd;" x="633.129619" xlink:href="#md72cc984a4" y="119.512993"/>
     <use style="fill:#9467bd;stroke:#9467bd;" x="668.3125" xlink:href="#md72cc984a4" y="96.410434"/>
    </g>
   </g>
   <g id="line2d_35">
    <path clip-path="url(#pc03464ac52)" d="M 434.5625 175.856602 
L 516.254619 173.897957 
L 551.4375 165.982207 
L 586.620381 147.003021 
L 633.129619 115.251946 
L 668.3125 95.857972 
" style="fill:none;stroke:#8c564b;stroke-linecap:square;stroke-width:1.5;"/>
    <g clip-path="url(#pc03464ac52)">
     <use style="fill:#8c564b;stroke:#8c564b;" x="434.5625" xlink:href="#m81c9d4eb9a" y="175.856602"/>
     <use style="fill:#8c564b;stroke:#8c564b;" x="516.254619" xlink:href="#m81c9d4eb9a" y="173.897957"/>
     <use style="fill:#8c564b;stroke:#8c564b;" x="551.4375" xlink:href="#m81c9d4eb9a" y="165.982207"/>
     <use style="fill:#8c564b;stroke:#8c564b;" x="586.620381" xlink:href="#m81c9d4eb9a" y="147.003021"/>
     <use style="fill:#8c564b;stroke:#8c564b;" x="633.129619" xlink:href="#m81c9d4eb9a" y="115.251946"/>
     <use style="fill:#8c564b;stroke:#8c564b;" x="668.3125" xlink:href="#m81c9d4eb9a" y="95.857972"/>
    </g>
   </g>
   <g id="line2d_36">
    <path clip-path="url(#pc03464ac52)" d="M 434.5625 138.541214 
L 516.254619 137.340497 
L 551.4375 133.768695 
L 586.620381 125.855585 
L 633.129619 106.614205 
L 668.3125 92.126673 
" style="fill:none;stroke:#e377c2;stroke-linecap:square;stroke-width:1.5;"/>
    <g clip-path="url(#pc03464ac52)">
     <use style="fill:#e377c2;stroke:#e377c2;" x="434.5625" xlink:href="#m4e4e5f8004" y="138.541214"/>
     <use style="fill:#e377c2;stroke:#e377c2;" x="516.254619" xlink:href="#m4e4e5f8004" y="137.340497"/>
     <use style="fill:#e377c2;stroke:#e377c2;" x="551.4375" xlink:href="#m4e4e5f8004" y="133.768695"/>
     <use style="fill:#e377c2;stroke:#e377c2;" x="586.620381" xlink:href="#m4e4e5f8004" y="125.855585"/>
     <use style="fill:#e377c2;stroke:#e377c2;" x="633.129619" xlink:href="#m4e4e5f8004" y="106.614205"/>
     <use style="fill:#e377c2;stroke:#e377c2;" x="668.3125" xlink:href="#m4e4e5f8004" y="92.126673"/>
    </g>
   </g>
   <g id="patch_8">
    <path d="M 422.875 214 
L 422.875 56 
" style="fill:none;stroke:#000000;stroke-linecap:square;stroke-linejoin:miter;stroke-width:0.8;"/>
   </g>
   <g id="patch_9">
    <path d="M 680 214 
L 680 56 
" style="fill:none;stroke:#000000;stroke-linecap:square;stroke-linejoin:miter;stroke-width:0.8;"/>
   </g>
   <g id="patch_10">
    <path d="M 422.875 214 
L 680 214 
" style="fill:none;stroke:#000000;stroke-linecap:square;stroke-linejoin:miter;stroke-width:0.8;"/>
   </g>
   <g id="patch_11">
    <path d="M 422.875 56 
L 680 56 
" style="fill:none;stroke:#000000;stroke-linecap:square;stroke-linejoin:miter;stroke-width:0.8;"/>
   </g>
   <g id="text_28">
    <!-- $ϵ = 0.5$ -->
    <g transform="translate(530.7975 50)scale(0.12 -0.12)">
     <use transform="translate(0 0.78125)" xlink:href="#DejaVuSans-Oblique-1013"/>
     <use transform="translate(81.005859 0.78125)" xlink:href="#DejaVuSans-61"/>
     <use transform="translate(184.277344 0.78125)" xlink:href="#DejaVuSans-48"/>
     <use transform="translate(247.900391 0.78125)" xlink:href="#DejaVuSans-46"/>
     <use transform="translate(279.6875 0.78125)" xlink:href="#DejaVuSans-53"/>
    </g>
   </g>
   <g id="legend_1">
    <g id="patch_12">
     <path d="M 699.85625 187.873438 
L 783.565625 187.873438 
Q 785.565625 187.873438 785.565625 185.873438 
L 785.565625 84.126563 
Q 785.565625 82.126563 783.565625 82.126563 
L 699.85625 82.126563 
Q 697.85625 82.126563 697.85625 84.126563 
L 697.85625 185.873438 
Q 697.85625 187.873438 699.85625 187.873438 
z
" style="fill:#ffffff;opacity:0.8;stroke:#cccccc;stroke-linejoin:miter;"/>
    </g>
    <g id="line2d_37">
     <path d="M 701.85625 90.225 
L 721 90.225 
" style="fill:none;stroke:#1f77b4;stroke-dasharray:5.55,2.4;stroke-dashoffset:0;stroke-width:1.5;"/>
    </g>
    <g id="line2d_38">
     <g>
      <use style="fill:#1f77b4;stroke:#1f77b4;stroke-linejoin:bevel;" x="711.85625" xlink:href="#m02dea2bea5" y="90.225"/>
     </g>
    </g>
    <g id="text_29">
     <!-- PBL (0.9) -->
     <defs>
      <path d="M 19.671875 64.796875 
L 19.671875 37.40625 
L 32.078125 37.40625 
Q 38.96875 37.40625 42.71875 40.96875 
Q 46.484375 44.53125 46.484375 51.125 
Q 46.484375 57.671875 42.71875 61.234375 
Q 38.96875 64.796875 32.078125 64.796875 
z
M 9.8125 72.90625 
L 32.078125 72.90625 
Q 44.34375 72.90625 50.609375 67.359375 
Q 56.890625 61.8125 56.890625 51.125 
Q 56.890625 40.328125 50.609375 34.8125 
Q 44.34375 29.296875 32.078125 29.296875 
L 19.671875 29.296875 
L 19.671875 0 
L 9.8125 0 
z
" id="DejaVuSans-80"/>
      <path d="M 19.671875 34.8125 
L 19.671875 8.109375 
L 35.5 8.109375 
Q 43.453125 8.109375 47.28125 11.40625 
Q 51.125 14.703125 51.125 21.484375 
Q 51.125 28.328125 47.28125 31.5625 
Q 43.453125 34.8125 35.5 34.8125 
z
M 19.671875 64.796875 
L 19.671875 42.828125 
L 34.28125 42.828125 
Q 41.5 42.828125 45.03125 45.53125 
Q 48.578125 48.25 48.578125 53.8125 
Q 48.578125 59.328125 45.03125 62.0625 
Q 41.5 64.796875 34.28125 64.796875 
z
M 9.8125 72.90625 
L 35.015625 72.90625 
Q 46.296875 72.90625 52.390625 68.21875 
Q 58.5 63.53125 58.5 54.890625 
Q 58.5 48.1875 55.375 44.234375 
Q 52.25 40.28125 46.1875 39.3125 
Q 53.46875 37.75 57.5 32.78125 
Q 61.53125 27.828125 61.53125 20.40625 
Q 61.53125 10.640625 54.890625 5.3125 
Q 48.25 0 35.984375 0 
L 9.8125 0 
z
" id="DejaVuSans-66"/>
      <path d="M 9.8125 72.90625 
L 19.671875 72.90625 
L 19.671875 8.296875 
L 55.171875 8.296875 
L 55.171875 0 
L 9.8125 0 
z
" id="DejaVuSans-76"/>
     </defs>
     <g transform="translate(729.85625 93.725)scale(0.1 -0.1)">
      <use xlink:href="#DejaVuSans-80"/>
      <use x="60.302734" xlink:href="#DejaVuSans-66"/>
      <use x="128.90625" xlink:href="#DejaVuSans-76"/>
      <use x="184.619141" xlink:href="#DejaVuSans-32"/>
      <use x="216.40625" xlink:href="#DejaVuSans-40"/>
      <use x="255.419922" xlink:href="#DejaVuSans-48"/>
      <use x="319.042969" xlink:href="#DejaVuSans-46"/>
      <use x="350.830078" xlink:href="#DejaVuSans-57"/>
      <use x="414.453125" xlink:href="#DejaVuSans-41"/>
     </g>
    </g>
    <g id="line2d_39">
     <path d="M 701.85625 104.903125 
L 721 104.903125 
" style="fill:none;stroke:#ff7f0e;stroke-dasharray:5.55,2.4;stroke-dashoffset:0;stroke-width:1.5;"/>
    </g>
    <g id="line2d_40">
     <g>
      <use style="fill:#ff7f0e;stroke:#ff7f0e;stroke-linejoin:bevel;" x="711.85625" xlink:href="#m5c52c75910" y="104.903125"/>
     </g>
    </g>
    <g id="text_30">
     <!-- PBL (0.95) -->
     <g transform="translate(729.85625 108.403125)scale(0.1 -0.1)">
      <use xlink:href="#DejaVuSans-80"/>
      <use x="60.302734" xlink:href="#DejaVuSans-66"/>
      <use x="128.90625" xlink:href="#DejaVuSans-76"/>
      <use x="184.619141" xlink:href="#DejaVuSans-32"/>
      <use x="216.40625" xlink:href="#DejaVuSans-40"/>
      <use x="255.419922" xlink:href="#DejaVuSans-48"/>
      <use x="319.042969" xlink:href="#DejaVuSans-46"/>
      <use x="350.830078" xlink:href="#DejaVuSans-57"/>
      <use x="414.453125" xlink:href="#DejaVuSans-53"/>
      <use x="478.076172" xlink:href="#DejaVuSans-41"/>
     </g>
    </g>
    <g id="line2d_41">
     <path d="M 701.85625 119.58125 
L 721 119.58125 
" style="fill:none;stroke:#2ca02c;stroke-linecap:square;stroke-width:1.5;"/>
    </g>
    <g id="line2d_42">
     <g>
      <use style="fill:#2ca02c;stroke:#2ca02c;" x="711.85625" xlink:href="#m03c79fafc9" y="119.58125"/>
     </g>
    </g>
    <g id="text_31">
     <!-- c=0 -->
     <defs>
      <path d="M 48.78125 52.59375 
L 48.78125 44.1875 
Q 44.96875 46.296875 41.140625 47.34375 
Q 37.3125 48.390625 33.40625 48.390625 
Q 24.65625 48.390625 19.8125 42.84375 
Q 14.984375 37.3125 14.984375 27.296875 
Q 14.984375 17.28125 19.8125 11.734375 
Q 24.65625 6.203125 33.40625 6.203125 
Q 37.3125 6.203125 41.140625 7.25 
Q 44.96875 8.296875 48.78125 10.40625 
L 48.78125 2.09375 
Q 45.015625 0.34375 40.984375 -0.53125 
Q 36.96875 -1.421875 32.421875 -1.421875 
Q 20.0625 -1.421875 12.78125 6.34375 
Q 5.515625 14.109375 5.515625 27.296875 
Q 5.515625 40.671875 12.859375 48.328125 
Q 20.21875 56 33.015625 56 
Q 37.15625 56 41.109375 55.140625 
Q 45.0625 54.296875 48.78125 52.59375 
z
" id="DejaVuSans-99"/>
     </defs>
     <g transform="translate(729.85625 123.08125)scale(0.1 -0.1)">
      <use xlink:href="#DejaVuSans-99"/>
      <use x="54.980469" xlink:href="#DejaVuSans-61"/>
      <use x="138.769531" xlink:href="#DejaVuSans-48"/>
     </g>
    </g>
    <g id="line2d_43">
     <path d="M 701.85625 134.259375 
L 721 134.259375 
" style="fill:none;stroke:#d62728;stroke-linecap:square;stroke-width:1.5;"/>
    </g>
    <g id="line2d_44">
     <g>
      <use style="fill:#d62728;stroke:#d62728;" x="711.85625" xlink:href="#md830c4d83d" y="134.259375"/>
     </g>
    </g>
    <g id="text_32">
     <!-- c=1 -->
     <g transform="translate(729.85625 137.759375)scale(0.1 -0.1)">
      <use xlink:href="#DejaVuSans-99"/>
      <use x="54.980469" xlink:href="#DejaVuSans-61"/>
      <use x="138.769531" xlink:href="#DejaVuSans-49"/>
     </g>
    </g>
    <g id="line2d_45">
     <path d="M 701.85625 148.9375 
L 721 148.9375 
" style="fill:none;stroke:#9467bd;stroke-linecap:square;stroke-width:1.5;"/>
    </g>
    <g id="line2d_46">
     <g>
      <use style="fill:#9467bd;stroke:#9467bd;" x="711.85625" xlink:href="#md72cc984a4" y="148.9375"/>
     </g>
    </g>
    <g id="text_33">
     <!-- c=2 -->
     <g transform="translate(729.85625 152.4375)scale(0.1 -0.1)">
      <use xlink:href="#DejaVuSans-99"/>
      <use x="54.980469" xlink:href="#DejaVuSans-61"/>
      <use x="138.769531" xlink:href="#DejaVuSans-50"/>
     </g>
    </g>
    <g id="line2d_47">
     <path d="M 701.85625 163.615625 
L 721 163.615625 
" style="fill:none;stroke:#8c564b;stroke-linecap:square;stroke-width:1.5;"/>
    </g>
    <g id="line2d_48">
     <g>
      <use style="fill:#8c564b;stroke:#8c564b;" x="711.85625" xlink:href="#m81c9d4eb9a" y="163.615625"/>
     </g>
    </g>
    <g id="text_34">
     <!-- c=5 -->
     <g transform="translate(729.85625 167.115625)scale(0.1 -0.1)">
      <use xlink:href="#DejaVuSans-99"/>
      <use x="54.980469" xlink:href="#DejaVuSans-61"/>
      <use x="138.769531" xlink:href="#DejaVuSans-53"/>
     </g>
    </g>
    <g id="line2d_49">
     <path d="M 701.85625 178.29375 
L 721 178.29375 
" style="fill:none;stroke:#e377c2;stroke-linecap:square;stroke-width:1.5;"/>
    </g>
    <g id="line2d_50">
     <g>
      <use style="fill:#e377c2;stroke:#e377c2;" x="711.85625" xlink:href="#m4e4e5f8004" y="178.29375"/>
     </g>
    </g>
    <g id="text_35">
     <!-- c=10 -->
     <g transform="translate(729.85625 181.79375)scale(0.1 -0.1)">
      <use xlink:href="#DejaVuSans-99"/>
      <use x="54.980469" xlink:href="#DejaVuSans-61"/>
      <use x="138.769531" xlink:href="#DejaVuSans-49"/>
      <use x="202.392578" xlink:href="#DejaVuSans-48"/>
     </g>
    </g>
   </g>
  </g>
 </g>
 <defs>
  <clipPath id="pf2f691fa10">
   <rect height="158" width="257.125" x="82.875" y="56"/>
  </clipPath>
  <clipPath id="pc03464ac52">
   <rect height="158" width="257.125" x="422.875" y="56"/>
  </clipPath>
 </defs>
</svg>
